<svg xmlns="http://www.w3.org/2000/svg" viewBox="0 0 350 350" xml:space="preserve"><g fill="#2AA9E1"><path d="m314.761 107.641-18.857-10.289V53.596a5.821 5.821 0 0 0-5.044-5.769l-115.078-15.58c-.034-.007-.068 0-.106-.005-.182-.021-.369-.02-.557-.026-.113-.001-.225-.01-.336-.008-.095.004-.186.004-.278.008-.165.016-.33.059-.494.087-.216.038-.437.067-.645.128-.122.036-.237.093-.358.138-.243.087-.488.18-.716.301-.025.013-.058.02-.083.034L35.234 107.641a5.831 5.831 0 0 0-3.034 5.113v199.215a5.83 5.83 0 0 0 2.848 5.008 5.832 5.832 0 0 0 2.975.814 5.82 5.82 0 0 0 2.791-.71L175 243.866l134.184 73.215a5.842 5.842 0 0 0 5.767-.104 5.834 5.834 0 0 0 2.851-5.008V112.755a5.834 5.834 0 0 0-3.041-5.114zM169.176 233.776 43.847 302.158V116.212L169.176 47.83v185.946zM284.255 58.683v32.314L205.494 48.02l78.761 10.663zm21.896 243.475-125.327-68.382V47.828l125.327 68.384v185.946z"/><path d="m129.69 210.013-59.153 32.275a5.825 5.825 0 0 0 2.8 10.936c.938 0 1.896-.228 2.779-.711l59.153-32.274a5.826 5.826 0 0 0 2.319-7.903 5.827 5.827 0 0 0-7.898-2.323zM83.117 191.613c.941 0 1.896-.227 2.782-.71l39.589-21.6a5.83 5.83 0 0 0 2.322-7.903 5.83 5.83 0 0 0-7.903-2.323l-39.589 21.6a5.825 5.825 0 0 0 2.799 10.936zM65.671 144.862c.941 0 1.897-.227 2.783-.711l74.475-40.635a5.828 5.828 0 0 0 2.323-7.902 5.827 5.827 0 0 0-7.901-2.324l-74.475 40.636a5.825 5.825 0 0 0-2.324 7.902 5.831 5.831 0 0 0 5.119 3.034zM279.457 242.289l-59.146-32.275a5.833 5.833 0 0 0-7.903 2.323 5.827 5.827 0 0 0 2.324 7.903l59.144 32.274a5.824 5.824 0 1 0 5.581-10.225zM264.097 190.903a5.82 5.82 0 0 0 7.901-2.325c1.544-2.821.501-6.358-2.325-7.901l-39.583-21.6a5.83 5.83 0 0 0-7.901 2.323 5.827 5.827 0 0 0 2.323 7.903l39.585 21.6zM207.068 103.516l74.476 40.635a5.827 5.827 0 0 0 7.9-2.323 5.826 5.826 0 0 0-2.322-7.902L212.649 93.29c-2.822-1.54-6.359-.494-7.902 2.324a5.827 5.827 0 0 0 2.321 7.902z"/></g></svg>